# This file uses centimeters as units for non-parametric coordinates.

mtllib box.mtl
g default
v -0.970364 -0.970364 0.970364
v 0.970364 -0.970364 0.970364
v -0.970364 0.970364 0.970364
v 0.970364 0.970364 0.970364
v -0.970364 0.970364 -0.970364
v 0.970364 0.970364 -0.970364
v -0.970364 -0.970364 -0.970364
v 0.970364 -0.970364 -0.970364
v 0.970364 -0.698662 -0.698662
v 0.970364 -0.698662 0.698662
v 0.970364 0.698662 -0.698662
v 0.970364 0.698662 0.698662
v -0.698662 0.698662 -0.970364
v 0.698662 0.698662 -0.970364
v 0.698662 -0.698662 -0.970364
v -0.698662 -0.698662 -0.970364
v -0.970364 -0.698662 -0.698662
v -0.970364 -0.698662 0.698662
v -0.970364 0.698662 0.698662
v -0.970364 0.698662 -0.698662
v -0.698662 0.970364 0.698662
v 0.698662 0.970364 0.698662
v 0.698662 0.970364 -0.698662
v -0.698662 0.970364 -0.698662
v -0.698662 -0.698662 0.970364
v 0.698662 -0.698662 0.970364
v 0.698662 0.698662 0.970364
v -0.698662 0.698662 0.970364
v -0.698662 -0.970364 -0.698662
v 0.698662 -0.970364 -0.698662
v 0.698662 -0.970364 0.698662
v -0.698662 -0.970364 0.698662
v -0.620093 -0.620093 0.861240
v 0.620093 -0.620093 0.861240
v 0.620093 0.620093 0.861240
v -0.620093 0.620093 0.861240
v -0.620093 0.861240 0.620093
v 0.620093 0.861240 0.620093
v 0.620093 0.861240 -0.620093
v -0.620093 0.861240 -0.620093
v -0.620093 0.620093 -0.861240
v 0.620093 0.620093 -0.861240
v 0.620093 -0.620093 -0.861240
v -0.620093 -0.620093 -0.861240
v -0.620093 -0.861240 -0.620093
v 0.620093 -0.861240 -0.620093
v 0.620093 -0.861240 0.620093
v -0.620093 -0.861240 0.620093
v 0.861240 -0.620093 -0.620093
v 0.861240 -0.620093 0.620093
v 0.861240 0.620093 -0.620093
v 0.861240 0.620093 0.620093
v -0.861240 -0.620093 -0.620093
v -0.861240 -0.620093 0.620093
v -0.861240 0.620093 0.620093
v -0.861240 0.620093 -0.620093
vt 0.061357 0.061458
vt 0.271904 0.061458
vt 0.061357 0.272006
vt 0.271904 0.272006
vt 0.398171 0.061458
vt 0.608719 0.061458
vt 0.398171 0.272006
vt 0.608719 0.272006
vt 0.677125 0.394726
vt 0.887673 0.394726
vt 0.677125 0.605274
vt 0.887673 0.605274
vt 0.341822 0.394726
vt 0.552370 0.394726
vt 0.341822 0.605274
vt 0.552370 0.605274
vt 0.061357 0.727994
vt 0.271904 0.727994
vt 0.061357 0.938542
vt 0.271904 0.938542
vt 0.398171 0.727994
vt 0.608719 0.727994
vt 0.398171 0.938542
vt 0.608719 0.938542
vt 0.001891 0.668528
vt 0.331370 0.668528
vt 0.048018 0.714655
vt 0.285243 0.714655
vt 0.331370 0.998008
vt 0.285243 0.951881
vt 0.001891 0.998008
vt 0.048018 0.951881
vt 0.617659 0.335260
vt 0.947139 0.335260
vt 0.663786 0.381387
vt 0.901012 0.381387
vt 0.947139 0.664740
vt 0.901012 0.618613
vt 0.617659 0.664740
vt 0.663786 0.618613
vt 0.338705 0.668528
vt 0.668185 0.668528
vt 0.384832 0.714655
vt 0.622058 0.714655
vt 0.668185 0.998008
vt 0.622058 0.951881
vt 0.338705 0.998008
vt 0.384832 0.951881
vt 0.338705 0.001992
vt 0.668185 0.001992
vt 0.384832 0.048119
vt 0.622058 0.048119
vt 0.668185 0.331472
vt 0.622058 0.285345
vt 0.338705 0.331472
vt 0.384832 0.285345
vt 0.001891 0.001992
vt 0.331370 0.001992
vt 0.048018 0.048119
vt 0.285243 0.048119
vt 0.331370 0.331472
vt 0.285243 0.285345
vt 0.001891 0.331472
vt 0.048018 0.285345
vt 0.282356 0.335260
vt 0.611836 0.335260
vt 0.328483 0.381387
vt 0.565709 0.381387
vt 0.611836 0.664740
vt 0.565709 0.618613
vt 0.282356 0.664740
vt 0.328483 0.618613
vn 0.000000 0.000000 1.000000
vn 0.000000 0.000000 1.000000
vn 0.000000 0.000000 1.000000
vn 0.000000 0.000000 1.000000
vn 0.000000 0.000000 1.000000
vn 0.000000 0.000000 1.000000
vn 0.000000 1.000000 0.000000
vn 0.000000 1.000000 0.000000
vn 0.000000 1.000000 0.000000
vn 0.000000 1.000000 0.000000
vn 0.000000 1.000000 0.000000
vn 0.000000 1.000000 0.000000
vn 0.000000 0.000000 -1.000000
vn 0.000000 0.000000 -1.000000
vn 0.000000 0.000000 -1.000000
vn 0.000000 0.000000 -1.000000
vn 0.000000 0.000000 -1.000000
vn 0.000000 0.000000 -1.000000
vn 0.000000 -1.000000 0.000000
vn 0.000000 -1.000000 0.000000
vn 0.000000 -1.000000 0.000000
vn 0.000000 -1.000000 0.000000
vn 0.000000 -1.000000 0.000000
vn 0.000000 -1.000000 0.000000
vn 1.000000 0.000000 0.000000
vn 1.000000 0.000000 0.000000
vn 1.000000 0.000000 0.000000
vn 1.000000 0.000000 0.000000
vn 1.000000 0.000000 0.000000
vn 1.000000 0.000000 0.000000
vn -1.000000 0.000000 0.000000
vn -1.000000 0.000000 0.000000
vn -1.000000 0.000000 0.000000
vn -1.000000 0.000000 0.000000
vn -1.000000 0.000000 0.000000
vn -1.000000 0.000000 0.000000
vn 1.000000 0.000000 0.000000
vn 1.000000 0.000000 0.000000
vn 1.000000 0.000000 0.000000
vn 1.000000 0.000000 0.000000
vn 1.000000 0.000000 0.000000
vn 1.000000 0.000000 0.000000
vn 1.000000 0.000000 0.000000
vn 1.000000 0.000000 0.000000
vn 1.000000 0.000000 0.000000
vn 1.000000 0.000000 0.000000
vn 1.000000 0.000000 0.000000
vn 1.000000 0.000000 0.000000
vn 1.000000 0.000000 0.000000
vn 1.000000 0.000000 0.000000
vn 1.000000 0.000000 0.000000
vn 1.000000 0.000000 0.000000
vn 1.000000 0.000000 0.000000
vn 1.000000 0.000000 0.000000
vn 1.000000 0.000000 0.000000
vn 1.000000 0.000000 0.000000
vn 1.000000 0.000000 0.000000
vn 1.000000 0.000000 0.000000
vn 1.000000 0.000000 0.000000
vn 1.000000 0.000000 0.000000
vn 0.000000 0.000000 -1.000000
vn 0.000000 0.000000 -1.000000
vn 0.000000 0.000000 -1.000000
vn 0.000000 0.000000 -1.000000
vn 0.000000 0.000000 -1.000000
vn 0.000000 0.000000 -1.000000
vn 0.000000 0.000000 -1.000000
vn 0.000000 0.000000 -1.000000
vn 0.000000 0.000000 -1.000000
vn 0.000000 0.000000 -1.000000
vn 0.000000 0.000000 -1.000000
vn 0.000000 0.000000 -1.000000
vn 0.000000 0.000000 -1.000000
vn 0.000000 0.000000 -1.000000
vn 0.000000 0.000000 -1.000000
vn 0.000000 0.000000 -1.000000
vn 0.000000 0.000000 -1.000000
vn 0.000000 0.000000 -1.000000
vn 0.000000 0.000000 -1.000000
vn 0.000000 0.000000 -1.000000
vn 0.000000 0.000000 -1.000000
vn 0.000000 0.000000 -1.000000
vn 0.000000 0.000000 -1.000000
vn 0.000000 0.000000 -1.000000
vn -1.000000 0.000000 0.000000
vn -1.000000 0.000000 0.000000
vn -1.000000 0.000000 0.000000
vn -1.000000 0.000000 0.000000
vn -1.000000 0.000000 0.000000
vn -1.000000 0.000000 0.000000
vn -1.000000 0.000000 0.000000
vn -1.000000 0.000000 0.000000
vn -1.000000 0.000000 0.000000
vn -1.000000 0.000000 0.000000
vn -1.000000 0.000000 0.000000
vn -1.000000 0.000000 0.000000
vn -1.000000 0.000000 0.000000
vn -1.000000 0.000000 0.000000
vn -1.000000 0.000000 0.000000
vn -1.000000 0.000000 0.000000
vn -1.000000 0.000000 0.000000
vn -1.000000 0.000000 0.000000
vn -1.000000 0.000000 0.000000
vn -1.000000 0.000000 0.000000
vn -1.000000 0.000000 0.000000
vn -1.000000 0.000000 0.000000
vn -1.000000 0.000000 0.000000
vn -1.000000 0.000000 0.000000
vn 0.000000 1.000000 0.000000
vn 0.000000 1.000000 0.000000
vn 0.000000 1.000000 0.000000
vn 0.000000 1.000000 0.000000
vn 0.000000 1.000000 0.000000
vn 0.000000 1.000000 0.000000
vn 0.000000 1.000000 0.000000
vn 0.000000 1.000000 0.000000
vn 0.000000 1.000000 0.000000
vn 0.000000 1.000000 0.000000
vn 0.000000 1.000000 0.000000
vn 0.000000 1.000000 0.000000
vn 0.000000 1.000000 0.000000
vn 0.000000 1.000000 0.000000
vn 0.000000 1.000000 0.000000
vn 0.000000 1.000000 0.000000
vn 0.000000 1.000000 0.000000
vn 0.000000 1.000000 0.000000
vn 0.000000 1.000000 0.000000
vn 0.000000 1.000000 0.000000
vn 0.000000 1.000000 0.000000
vn 0.000000 1.000000 0.000000
vn 0.000000 1.000000 0.000000
vn 0.000000 1.000000 0.000000
vn 0.000000 0.000000 1.000000
vn 0.000000 0.000000 1.000000
vn 0.000000 0.000000 1.000000
vn 0.000000 0.000000 1.000000
vn 0.000000 0.000000 1.000000
vn 0.000000 0.000000 1.000000
vn 0.000000 0.000000 1.000000
vn 0.000000 0.000000 1.000000
vn 0.000000 0.000000 1.000000
vn 0.000000 0.000000 1.000000
vn 0.000000 0.000000 1.000000
vn 0.000000 0.000000 1.000000
vn 0.000000 0.000000 1.000000
vn 0.000000 0.000000 1.000000
vn 0.000000 0.000000 1.000000
vn 0.000000 0.000000 1.000000
vn 0.000000 0.000000 1.000000
vn 0.000000 0.000000 1.000000
vn 0.000000 0.000000 1.000000
vn 0.000000 0.000000 1.000000
vn 0.000000 0.000000 1.000000
vn 0.000000 0.000000 1.000000
vn 0.000000 0.000000 1.000000
vn 0.000000 0.000000 1.000000
vn 0.000000 -1.000000 0.000000
vn 0.000000 -1.000000 0.000000
vn 0.000000 -1.000000 0.000000
vn 0.000000 -1.000000 0.000000
vn 0.000000 -1.000000 0.000000
vn 0.000000 -1.000000 0.000000
vn 0.000000 -1.000000 0.000000
vn 0.000000 -1.000000 0.000000
vn 0.000000 -1.000000 0.000000
vn 0.000000 -1.000000 0.000000
vn 0.000000 -1.000000 0.000000
vn 0.000000 -1.000000 0.000000
vn 0.000000 -1.000000 0.000000
vn 0.000000 -1.000000 0.000000
vn 0.000000 -1.000000 0.000000
vn 0.000000 -1.000000 0.000000
vn 0.000000 -1.000000 0.000000
vn 0.000000 -1.000000 0.000000
vn 0.000000 -1.000000 0.000000
vn 0.000000 -1.000000 0.000000
vn 0.000000 -1.000000 0.000000
vn 0.000000 -1.000000 0.000000
vn 0.000000 -1.000000 0.000000
vn 0.000000 -1.000000 0.000000
vn 0.000000 0.811535 0.584304
vn 0.000000 0.811534 0.584305
vn 0.000000 0.811535 0.584305
vn 0.000000 0.811535 0.584305
vn 0.000000 0.811534 0.584305
vn 0.000000 0.811534 0.584305
vn -0.811534 0.000000 0.584306
vn -0.811535 0.000000 0.584304
vn -0.811534 0.000000 0.584305
vn -0.811534 0.000000 0.584305
vn -0.811535 0.000000 0.584304
vn -0.811535 0.000000 0.584304
vn 0.000000 -0.811535 0.584304
vn 0.000000 -0.811534 0.584305
vn 0.000000 -0.811535 0.584305
vn 0.000000 -0.811535 0.584305
vn 0.000000 -0.811534 0.584305
vn 0.000000 -0.811534 0.584305
vn 0.811534 0.000000 0.584306
vn 0.811535 0.000000 0.584304
vn 0.811534 0.000000 0.584305
vn 0.811534 0.000000 0.584305
vn 0.811535 0.000000 0.584304
vn 0.811535 0.000000 0.584304
vn 0.000000 0.584306 -0.811534
vn 0.000000 0.584304 -0.811535
vn 0.000000 0.584305 -0.811534
vn 0.000000 0.584305 -0.811534
vn 0.000000 0.584304 -0.811535
vn 0.000000 0.584304 -0.811535
vn -0.811535 0.584304 0.000000
vn -0.811534 0.584305 0.000000
vn -0.811535 0.584305 0.000000
vn -0.811535 0.584305 0.000000
vn -0.811534 0.584305 0.000000
vn -0.811534 0.584305 0.000000
vn 0.000000 0.584306 0.811534
vn 0.000000 0.584304 0.811535
vn 0.000000 0.584305 0.811534
vn 0.000000 0.584305 0.811534
vn 0.000000 0.584304 0.811535
vn 0.000000 0.584304 0.811535
vn 0.811535 0.584304 0.000000
vn 0.811534 0.584305 0.000000
vn 0.811535 0.584305 0.000000
vn 0.811535 0.584305 0.000000
vn 0.811534 0.584305 0.000000
vn 0.811534 0.584305 0.000000
vn 0.000000 -0.811535 -0.584304
vn 0.000000 -0.811534 -0.584305
vn 0.000000 -0.811535 -0.584305
vn 0.000000 -0.811535 -0.584305
vn 0.000000 -0.811534 -0.584305
vn 0.000000 -0.811534 -0.584305
vn -0.811534 0.000000 -0.584306
vn -0.811535 0.000000 -0.584304
vn -0.811534 0.000000 -0.584305
vn -0.811534 0.000000 -0.584305
vn -0.811535 0.000000 -0.584304
vn -0.811535 0.000000 -0.584304
vn 0.000000 0.811535 -0.584304
vn 0.000000 0.811534 -0.584305
vn 0.000000 0.811535 -0.584305
vn 0.000000 0.811535 -0.584305
vn 0.000000 0.811534 -0.584305
vn 0.000000 0.811534 -0.584305
vn 0.811534 0.000000 -0.584306
vn 0.811535 0.000000 -0.584304
vn 0.811534 0.000000 -0.584305
vn 0.811534 0.000000 -0.584305
vn 0.811535 0.000000 -0.584304
vn 0.811535 0.000000 -0.584304
vn 0.000000 -0.584306 0.811534
vn 0.000000 -0.584304 0.811535
vn 0.000000 -0.584305 0.811534
vn 0.000000 -0.584305 0.811534
vn 0.000000 -0.584304 0.811535
vn 0.000000 -0.584304 0.811535
vn -0.811535 -0.584304 0.000000
vn -0.811534 -0.584305 0.000000
vn -0.811535 -0.584305 0.000000
vn -0.811535 -0.584305 0.000000
vn -0.811534 -0.584305 0.000000
vn -0.811534 -0.584305 0.000000
vn 0.000000 -0.584306 -0.811534
vn 0.000000 -0.584304 -0.811535
vn 0.000000 -0.584305 -0.811534
vn 0.000000 -0.584305 -0.811534
vn 0.000000 -0.584304 -0.811535
vn 0.000000 -0.584304 -0.811535
vn 0.811535 -0.584304 0.000000
vn 0.811534 -0.584305 0.000000
vn 0.811535 -0.584305 0.000000
vn 0.811535 -0.584305 0.000000
vn 0.811534 -0.584305 0.000000
vn 0.811534 -0.584305 0.000000
vn 0.584306 0.811534 0.000000
vn 0.584304 0.811535 0.000000
vn 0.584305 0.811534 0.000000
vn 0.584305 0.811534 0.000000
vn 0.584304 0.811535 0.000000
vn 0.584304 0.811535 0.000000
vn 0.584304 0.000000 0.811535
vn 0.584305 0.000000 0.811534
vn 0.584305 0.000000 0.811535
vn 0.584305 0.000000 0.811535
vn 0.584305 0.000000 0.811534
vn 0.584305 0.000000 0.811534
vn 0.584306 -0.811534 0.000000
vn 0.584304 -0.811535 0.000000
vn 0.584305 -0.811534 0.000000
vn 0.584305 -0.811534 0.000000
vn 0.584304 -0.811535 0.000000
vn 0.584304 -0.811535 0.000000
vn 0.584304 0.000000 -0.811535
vn 0.584305 0.000000 -0.811534
vn 0.584305 0.000000 -0.811535
vn 0.584305 0.000000 -0.811535
vn 0.584305 0.000000 -0.811534
vn 0.584305 0.000000 -0.811534
vn -0.584306 0.811534 0.000000
vn -0.584304 0.811535 0.000000
vn -0.584305 0.811534 0.000000
vn -0.584305 0.811534 0.000000
vn -0.584304 0.811535 0.000000
vn -0.584304 0.811535 0.000000
vn -0.584304 0.000000 -0.811535
vn -0.584305 0.000000 -0.811534
vn -0.584305 0.000000 -0.811535
vn -0.584305 0.000000 -0.811535
vn -0.584305 0.000000 -0.811534
vn -0.584305 0.000000 -0.811534
vn -0.584306 -0.811534 0.000000
vn -0.584304 -0.811535 0.000000
vn -0.584305 -0.811534 0.000000
vn -0.584305 -0.811534 0.000000
vn -0.584304 -0.811535 0.000000
vn -0.584304 -0.811535 0.000000
vn -0.584304 0.000000 0.811535
vn -0.584305 0.000000 0.811534
vn -0.584305 0.000000 0.811535
vn -0.584305 0.000000 0.811535
vn -0.584305 0.000000 0.811534
vn -0.584305 0.000000 0.811534
s off
g pCube1
usemtl initialShadingGroup
f 33/1/1 34/2/2 36/3/3
f 36/3/4 34/2/5 35/4/6
f 37/5/7 38/6/8 40/7/9
f 40/7/10 38/6/11 39/8/12
f 41/9/13 42/10/14 44/11/15
f 44/11/16 42/10/17 43/12/18
f 45/13/19 46/14/20 48/15/21
f 48/15/22 46/14/23 47/16/24
f 50/17/25 49/18/26 52/19/27
f 52/19/28 49/18/29 51/20/30
f 53/21/31 54/22/32 56/23/33
f 56/23/34 54/22/35 55/24/36
f 2/25/37 8/26/38 10/27/39
f 10/27/40 8/26/41 9/28/42
f 8/26/43 6/29/44 9/28/45
f 9/28/46 6/29/47 11/30/48
f 6/29/49 4/31/50 11/30/51
f 11/30/52 4/31/53 12/32/54
f 4/31/55 2/25/56 12/32/57
f 12/32/58 2/25/59 10/27/60
f 5/33/61 6/34/62 13/35/63
f 13/35/64 6/34/65 14/36/66
f 6/34/67 8/37/68 14/36/69
f 14/36/70 8/37/71 15/38/72
f 8/37/73 7/39/74 15/38/75
f 15/38/76 7/39/77 16/40/78
f 7/39/79 5/33/80 16/40/81
f 16/40/82 5/33/83 13/35/84
f 7/41/85 1/42/86 17/43/87
f 17/43/88 1/42/89 18/44/90
f 1/42/91 3/45/92 18/44/93
f 18/44/94 3/45/95 19/46/96
f 3/45/97 5/47/98 19/46/99
f 19/46/100 5/47/101 20/48/102
f 5/47/103 7/41/104 20/48/105
f 20/48/106 7/41/107 17/43/108
f 3/49/109 4/50/110 21/51/111
f 21/51/112 4/50/113 22/52/114
f 4/50/115 6/53/116 22/52/117
f 22/52/118 6/53/119 23/54/120
f 6/53/121 5/55/122 23/54/123
f 23/54/124 5/55/125 24/56/126
f 5/55/127 3/49/128 24/56/129
f 24/56/130 3/49/131 21/51/132
f 1/57/133 2/58/134 25/59/135
f 25/59/136 2/58/137 26/60/138
f 2/58/139 4/61/140 26/60/141
f 26/60/142 4/61/143 27/62/144
f 4/61/145 3/63/146 27/62/147
f 27/62/148 3/63/149 28/64/150
f 3/63/151 1/57/152 28/64/153
f 28/64/154 1/57/155 25/59/156
f 7/65/157 8/66/158 29/67/159
f 29/67/160 8/66/161 30/68/162
f 8/66/163 2/69/164 30/68/165
f 30/68/166 2/69/167 31/70/168
f 2/69/169 1/71/170 31/70/171
f 31/70/172 1/71/173 32/72/174
f 1/71/175 7/65/176 32/72/177
f 32/72/178 7/65/179 29/67/180
f 25/59/181 26/60/182 33/1/183
f 33/1/184 26/60/185 34/2/186
f 26/60/187 27/62/188 34/2/189
f 34/2/190 27/62/191 35/4/192
f 27/62/193 28/64/194 35/4/195
f 35/4/196 28/64/197 36/3/198
f 28/64/199 25/59/200 36/3/201
f 36/3/202 25/59/203 33/1/204
f 21/51/205 22/52/206 37/5/207
f 37/5/208 22/52/209 38/6/210
f 22/52/211 23/54/212 38/6/213
f 38/6/214 23/54/215 39/8/216
f 23/54/217 24/56/218 39/8/219
f 39/8/220 24/56/221 40/7/222
f 24/56/223 21/51/224 40/7/225
f 40/7/226 21/51/227 37/5/228
f 13/35/229 14/36/230 41/9/231
f 41/9/232 14/36/233 42/10/234
f 14/36/235 15/38/236 42/10/237
f 42/10/238 15/38/239 43/12/240
f 15/38/241 16/40/242 43/12/243
f 43/12/244 16/40/245 44/11/246
f 16/40/247 13/35/248 44/11/249
f 44/11/250 13/35/251 41/9/252
f 29/67/253 30/68/254 45/13/255
f 45/13/256 30/68/257 46/14/258
f 30/68/259 31/70/260 46/14/261
f 46/14/262 31/70/263 47/16/264
f 31/70/265 32/72/266 47/16/267
f 47/16/268 32/72/269 48/15/270
f 32/72/271 29/67/272 48/15/273
f 48/15/274 29/67/275 45/13/276
f 10/27/277 9/28/278 50/17/279
f 50/17/280 9/28/281 49/18/282
f 9/28/283 11/30/284 49/18/285
f 49/18/286 11/30/287 51/20/288
f 11/30/289 12/32/290 51/20/291
f 51/20/292 12/32/293 52/19/294
f 12/32/295 10/27/296 52/19/297
f 52/19/298 10/27/299 50/17/300
f 17/43/301 18/44/302 53/21/303
f 53/21/304 18/44/305 54/22/306
f 18/44/307 19/46/308 54/22/309
f 54/22/310 19/46/311 55/24/312
f 19/46/313 20/48/314 55/24/315
f 55/24/316 20/48/317 56/23/318
f 20/48/319 17/43/320 56/23/321
f 56/23/322 17/43/323 53/21/324
